<svg xmlns="http://www.w3.org/2000/svg" width="900" height="560" viewBox="0 0 900 560" font-family="-apple-system,BlinkMacSystemFont,'SF Pro Text',sans-serif">
  <rect width="900" height="560" fill="#0f0f0f" rx="12"/>
  <rect width="200" height="560" fill="#0f0f0f"/>
  <rect x="200" width="1" height="560" fill="#1f1f1f"/>
  <rect x="18" y="20" width="28" height="28" rx="7" fill="#1a1a1a"/>
  <circle cx="25" cy="27" r="4" fill="#f5f5f5"/>
  <circle cx="25" cy="37" r="4" fill="#FF4C00"/>
  <circle cx="35" cy="37" r="4" fill="#ccff00"/>
  <text x="54" y="39" fill="#f5f5f5" font-size="14" font-weight="600" letter-spacing="-0.3">Territórios</text>
  <rect x="0" y="112" width="200" height="40" fill="#1a1a1a"/>
  <text x="18" y="137" fill="#f5f5f5" font-size="13" font-weight="500">Territórios</text>
  <text x="18" y="97" fill="#6b7280" font-size="13">Início</text>
  <text x="18" y="177" fill="#6b7280" font-size="13">Publicadores</text>
  <text x="18" y="217" fill="#6b7280" font-size="13">Atribuições</text>
  <text x="18" y="257" fill="#6b7280" font-size="13">Relatórios</text>
  <text x="18" y="297" fill="#6b7280" font-size="13">Definições</text>
  <!-- Back link -->
  <text x="220" y="32" fill="#6b7280" font-size="13">← Voltar</text>
  <!-- Territory header card -->
  <rect x="220" y="44" width="660" height="84" rx="10" fill="#0f0f0f" stroke="#1f1f1f" stroke-width="1"/>
  <text x="236" y="68" fill="#f5f5f5" font-size="17" font-weight="700">P-32 · Serralves</text>
  <rect x="350" y="54" width="54" height="18" rx="4" fill="#1a1a1a" stroke="#1f1f1f" stroke-width="1"/>
  <text x="377" y="67" fill="#9ca3af" font-size="11" text-anchor="middle">Porto</text>
  <text x="236" y="88" fill="#3E74ED" font-size="12">Margarida Fontes · desde 12/02/2026 · 55 dias restantes</text>
  <text x="236" y="108" fill="#6b7280" font-size="12">Abrir no Google Maps ↗</text>
  <rect x="790" y="54" width="74" height="28" rx="6" fill="transparent" stroke="#1f1f1f" stroke-width="1"/>
  <text x="827" y="72" fill="#f5f5f5" font-size="12" text-anchor="middle">Editar</text>
  <!-- Stats row -->
  <rect x="220" y="140" width="210" height="54" rx="8" fill="#1a1a1a" stroke="#1f1f1f" stroke-width="1"/>
  <text x="264" y="163" fill="#f5f5f5" font-size="20" font-weight="700" text-anchor="middle">12</text>
  <text x="264" y="180" fill="#6b7280" font-size="10" text-anchor="middle">Homens</text>
  <rect x="440" y="140" width="210" height="54" rx="8" fill="#1a1a1a" stroke="#1f1f1f" stroke-width="1"/>
  <text x="545" y="163" fill="#f5f5f5" font-size="20" font-weight="700" text-anchor="middle">8</text>
  <text x="545" y="180" fill="#6b7280" font-size="10" text-anchor="middle">Mulheres</text>
  <rect x="660" y="140" width="220" height="54" rx="8" fill="#1a1a1a" stroke="#1f1f1f" stroke-width="1"/>
  <text x="770" y="163" fill="#f5f5f5" font-size="20" font-weight="700" text-anchor="middle">5</text>
  <text x="770" y="180" fill="#6b7280" font-size="10" text-anchor="middle">Casais</text>
  <!-- Moradas header -->
  <text x="220" y="220" fill="#f5f5f5" font-size="15" font-weight="700">Moradas (25)</text>
  <rect x="698" y="207" width="84" height="28" rx="6" fill="#1a1a1a" stroke="#1f1f1f" stroke-width="1"/>
  <text x="740" y="225" fill="#16a34a" font-size="12" text-anchor="middle">Copiar notas</text>
  <rect x="790" y="207" width="90" height="28" rx="6" fill="#f5f5f5"/>
  <text x="835" y="225" fill="#0f0f0f" font-size="12" font-weight="500" text-anchor="middle">+ Morada</text>
  <!-- Legend -->
  <rect x="220" y="244" width="210" height="22" rx="5" fill="#1a1a1a"/>
  <text x="228" y="259" fill="#6b7280" font-size="11">Rua  ·  [Género]  ·  Última atualização</text>
  <!-- Categories chips -->
  <text x="220" y="288" fill="#9ca3af" font-size="11">Categorias:</text>
  <rect x="280" y="276" width="90" height="22" rx="5" fill="#1a1a1a" stroke="#f5f5f5" stroke-width="1"/>
  <text x="325" y="291" fill="#f5f5f5" font-size="11" text-anchor="middle">Todas</text>
  <rect x="378" y="276" width="72" height="22" rx="5" fill="#1a1a1a" stroke="#1f1f1f" stroke-width="1"/>
  <text x="414" y="291" fill="#6b7280" font-size="11" text-anchor="middle">Apartamentos</text>
  <rect x="458" y="276" width="58" height="22" rx="5" fill="#1a1a1a" stroke="#1f1f1f" stroke-width="1"/>
  <text x="487" y="291" fill="#6b7280" font-size="11" text-anchor="middle">Moradias</text>
  <!-- Address rows -->
  <line x1="220" y1="310" x2="880" y2="310" stroke="#1f1f1f" stroke-width="1"/>
  <!-- Row 1 -->
  <text x="220" y="330" fill="#f5f5f5" font-size="13" font-weight="500">Rua de Serralves, 12</text>
  <text x="220" y="346" fill="#6b7280" font-size="11">Interfone 4B · 18/04/2026</text>
  <rect x="740" y="316" width="36" height="18" rx="4" fill="#dbeafe"/>
  <text x="758" y="329" fill="#1e40af" font-size="10" font-weight="500" text-anchor="middle">H</text>
  <rect x="782" y="316" width="40" height="18" rx="5" fill="#1a1a1a" stroke="#1f1f1f" stroke-width="1"/>
  <text x="802" y="329" fill="#6b7280" font-size="11" text-anchor="middle">✏</text>
  <rect x="828" y="316" width="32" height="18" rx="5" fill="#1a1a1a" stroke="#fca5a5" stroke-width="1"/>
  <text x="844" y="329" fill="#dc2626" font-size="12" text-anchor="middle">×</text>
  <line x1="220" y1="358" x2="880" y2="358" stroke="#1f1f1f" stroke-width="1"/>
  <!-- Row 2 -->
  <text x="220" y="378" fill="#f5f5f5" font-size="13" font-weight="500">Rua de Serralves, 14</text>
  <text x="220" y="394" fill="#6b7280" font-size="11">03/03/2026</text>
  <rect x="740" y="364" width="36" height="18" rx="4" fill="#fce7f3"/>
  <text x="758" y="377" fill="#9d174d" font-size="10" font-weight="500" text-anchor="middle">M</text>
  <rect x="782" y="364" width="40" height="18" rx="5" fill="#1a1a1a" stroke="#1f1f1f" stroke-width="1"/>
  <text x="802" y="377" fill="#6b7280" font-size="11" text-anchor="middle">✏</text>
  <rect x="828" y="364" width="32" height="18" rx="5" fill="#1a1a1a" stroke="#fca5a5" stroke-width="1"/>
  <text x="844" y="377" fill="#dc2626" font-size="12" text-anchor="middle">×</text>
  <line x1="220" y1="406" x2="880" y2="406" stroke="#1f1f1f" stroke-width="1"/>
  <!-- Row 3 -->
  <text x="220" y="426" fill="#f5f5f5" font-size="13" font-weight="500">Av. da Boavista, 2550</text>
  <text x="220" y="442" fill="#6b7280" font-size="11">Apt. 5D, piso 4 · 15/01/2026</text>
  <rect x="740" y="412" width="36" height="18" rx="4" fill="#d1fae5"/>
  <text x="758" y="425" fill="#065f46" font-size="10" font-weight="500" text-anchor="middle">C</text>
  <rect x="782" y="412" width="40" height="18" rx="5" fill="#1a1a1a" stroke="#1f1f1f" stroke-width="1"/>
  <text x="802" y="425" fill="#6b7280" font-size="11" text-anchor="middle">✏</text>
  <rect x="828" y="412" width="32" height="18" rx="5" fill="#1a1a1a" stroke="#fca5a5" stroke-width="1"/>
  <text x="844" y="425" fill="#dc2626" font-size="12" text-anchor="middle">×</text>
  <line x1="220" y1="454" x2="880" y2="454" stroke="#1f1f1f" stroke-width="1"/>
  <!-- NV section -->
  <rect x="220" y="466" width="660" height="56" rx="10" fill="rgba(220,38,38,0.04)" stroke="rgba(220,38,38,0.2)" stroke-width="1"/>
  <text x="236" y="485" fill="#dc2626" font-size="10" font-weight="600" letter-spacing="0.08em">NÃO VISITAR (2)</text>
  <text x="236" y="505" fill="#6b7280" font-size="12">Rua de Serralves, 18 · Cão agressivo · 22/02/2026</text>
</svg>