<svg xmlns="http://www.w3.org/2000/svg" width="900" height="560" viewBox="0 0 900 560" font-family="-apple-system,BlinkMacSystemFont,'SF Pro Text',sans-serif">
  <rect width="900" height="560" fill="#0f0f0f" rx="12"/>
  <!-- Sidebar -->
  <rect width="200" height="560" fill="#0f0f0f" rx="0"/>
  <rect x="200" width="1" height="560" fill="#1f1f1f"/>
  <!-- Logo -->
  <rect x="18" y="20" width="28" height="28" rx="7" fill="#1a1a1a"/>
  <circle cx="25" cy="27" r="4" fill="#f5f5f5"/>
  <circle cx="25" cy="37" r="4" fill="#FF4C00"/>
  <circle cx="35" cy="37" r="4" fill="#ccff00"/>
  <text x="54" y="39" fill="#f5f5f5" font-size="14" font-weight="600" letter-spacing="-0.3">Territórios</text>
  <!-- Nav items -->
  <rect x="0" y="72" width="200" height="40" fill="#1a1a1a"/>
  <text x="18" y="97" fill="#f5f5f5" font-size="13" font-weight="500">Início</text>
  <text x="18" y="137" fill="#6b7280" font-size="13">Territórios</text>
  <text x="18" y="177" fill="#6b7280" font-size="13">Publicadores</text>
  <text x="18" y="217" fill="#6b7280" font-size="13">Atribuições</text>
  <rect x="138" y="203" width="18" height="14" rx="7" fill="#FF4C00"/>
  <text x="147" y="214" fill="#fff" font-size="9" font-weight="600" text-anchor="middle">13</text>
  <text x="18" y="257" fill="#6b7280" font-size="13">Relatórios</text>
  <text x="18" y="297" fill="#6b7280" font-size="13">Definições</text>
  <!-- Footer -->
  <text x="18" y="530" fill="#6b7280" font-size="11">tomasvilargaspar@gmail.com</text>
  <text x="18" y="547" fill="#6b7280" font-size="11">Sair</text>
  <!-- Content area -->
  <!-- Alert box -->
  <rect x="220" y="20" width="660" height="64" rx="10" fill="#0f0f0f" stroke="#FF4C00" stroke-width="1.5"/>
  <text x="236" y="43" fill="#FF4C00" font-size="13" font-weight="600">13 território(s) há mais de 6 meses</text>
  <text x="236" y="62" fill="#FF4C00" font-size="11">G-103 · Sermonde · Grupo Sul · 34sem</text>
  <rect x="820" y="30" width="44" height="24" rx="5" fill="transparent" stroke="#FF4C00" stroke-width="1"/>
  <text x="842" y="46" fill="#FF4C00" font-size="11" text-anchor="middle">Ver</text>
  <!-- Filter buttons -->
  <rect x="220" y="100" width="76" height="28" rx="6" fill="#f5f5f5"/>
  <text x="258" y="119" fill="#0f0f0f" font-size="12" font-weight="500" text-anchor="middle">12 meses</text>
  <rect x="304" y="100" width="66" height="28" rx="6" fill="#1a1a1a"/>
  <text x="337" y="119" fill="#6b7280" font-size="12" text-anchor="middle">6 meses</text>
  <rect x="378" y="100" width="66" height="28" rx="6" fill="#1a1a1a"/>
  <text x="411" y="119" fill="#6b7280" font-size="12" text-anchor="middle">3 meses</text>
  <!-- KPI grid -->
  <rect x="220" y="144" width="660" height="120" rx="10" fill="#0f0f0f" stroke="#1f1f1f" stroke-width="1"/>
  <!-- KPI cells -->
  <g fill="#9ca3af" font-size="10" font-weight="600" letter-spacing="0.04em">
    <text x="240" y="165">TOTAL CARTÕES</text>
    <text x="406" y="165">COM PUBLICADOR</text>
    <text x="572" y="165">NÃO DESIGNADOS</text>
    <text x="738" y="165">MORADAS</text>
    <text x="240" y="215">CONCLUÍDOS (12M)</text>
    <text x="406" y="215">EM CURSO</text>
    <text x="572" y="215">NÃO TRABALHADOS</text>
    <text x="738" y="215">PARTICIPAÇÃO</text>
  </g>
  <line x1="386" y1="144" x2="386" y2="264" stroke="#1f1f1f" stroke-width="1"/>
  <line x1="552" y1="144" x2="552" y2="264" stroke="#1f1f1f" stroke-width="1"/>
  <line x1="718" y1="144" x2="718" y2="264" stroke="#1f1f1f" stroke-width="1"/>
  <line x1="220" y1="204" x2="880" y2="204" stroke="#1f1f1f" stroke-width="1"/>
  <g font-size="22" font-weight="600" letter-spacing="-0.5">
    <text x="240" y="200" fill="#f5f5f5">155</text>
    <text x="406" y="200" fill="#3E74ED">36</text>
    <text x="572" y="200" fill="#f5f5f5">119</text>
    <text x="738" y="200" fill="#f5f5f5">633</text>
    <text x="240" y="250" fill="#F9A219">111 (72%)</text>
    <text x="406" y="250" fill="#3E74ED">36</text>
    <text x="572" y="250" fill="#FF4C00">33</text>
    <text x="738" y="250" fill="#F9A219">71%</text>
  </g>
  <!-- Charts -->
  <rect x="220" y="280" width="206" height="100" rx="10" fill="#0f0f0f" stroke="#1f1f1f" stroke-width="1"/>
  <text x="236" y="300" fill="#9ca3af" font-size="10" font-weight="600" letter-spacing="0.06em">CONCLUÍDOS</text>
  <rect x="250" y="340" width="40" height="30" rx="2" fill="#F9A219"/>
  <rect x="310" y="320" width="40" height="50" rx="2" fill="#F9A219" opacity="0.6"/>
  <rect x="370" y="310" width="40" height="60" rx="2" fill="#F9A219" opacity="0.4"/>
  <text x="270" y="385" fill="#6b7280" font-size="9" text-anchor="middle">3m</text>
  <text x="330" y="385" fill="#6b7280" font-size="9" text-anchor="middle">6m</text>
  <text x="390" y="385" fill="#6b7280" font-size="9" text-anchor="middle">12m</text>
  <text x="270" y="332" fill="#f5f5f5" font-size="12" font-weight="600" text-anchor="middle">54</text>
  <text x="330" y="312" fill="#f5f5f5" font-size="12" font-weight="600" text-anchor="middle">84</text>
  <text x="390" y="302" fill="#f5f5f5" font-size="12" font-weight="600" text-anchor="middle">111</text>

  <rect x="438" y="280" width="206" height="100" rx="10" fill="#0f0f0f" stroke="#1f1f1f" stroke-width="1"/>
  <text x="454" y="300" fill="#9ca3af" font-size="10" font-weight="600" letter-spacing="0.06em">EM CURSO</text>
  <rect x="468" y="330" width="40" height="40" rx="2" fill="#3E74ED"/>
  <rect x="528" y="340" width="40" height="30" rx="2" fill="#3E74ED" opacity="0.6"/>
  <rect x="588" y="350" width="40" height="20" rx="2" fill="#3E74ED" opacity="0.4"/>
  <text x="488" y="325" fill="#f5f5f5" font-size="12" font-weight="600" text-anchor="middle">36</text>
  <text x="548" y="335" fill="#f5f5f5" font-size="12" font-weight="600" text-anchor="middle">22</text>
  <text x="608" y="345" fill="#f5f5f5" font-size="12" font-weight="600" text-anchor="middle">13</text>
  <text x="488" y="385" fill="#6b7280" font-size="9" text-anchor="middle">Todos</text>
  <text x="548" y="385" fill="#6b7280" font-size="9" text-anchor="middle">&gt;3m</text>
  <text x="608" y="385" fill="#6b7280" font-size="9" text-anchor="middle">&gt;6m</text>

  <rect x="656" y="280" width="204" height="100" rx="10" fill="#0f0f0f" stroke="#1f1f1f" stroke-width="1"/>
  <text x="672" y="300" fill="#9ca3af" font-size="10" font-weight="600" letter-spacing="0.06em">NÃO TRABALHADOS</text>
  <rect x="686" y="360" width="40" height="10" rx="2" fill="#6b7280"/>
  <rect x="746" y="348" width="40" height="22" rx="2" fill="#6b7280" opacity="0.7"/>
  <rect x="806" y="340" width="40" height="30" rx="2" fill="#6b7280" opacity="0.5"/>
  <text x="706" y="355" fill="#f5f5f5" font-size="12" font-weight="600" text-anchor="middle">0</text>
  <text x="766" y="343" fill="#f5f5f5" font-size="12" font-weight="600" text-anchor="middle">0</text>
  <text x="826" y="335" fill="#f5f5f5" font-size="12" font-weight="600" text-anchor="middle">0</text>
  <text x="706" y="385" fill="#6b7280" font-size="9" text-anchor="middle">&gt;6m</text>
  <text x="766" y="385" fill="#6b7280" font-size="9" text-anchor="middle">&gt;12m</text>
  <text x="826" y="385" fill="#6b7280" font-size="9" text-anchor="middle">&gt;24m</text>

  <!-- Table -->
  <rect x="220" y="396" width="660" height="28" rx="0" fill="#1a1a1a"/>
  <text x="236" y="414" fill="#6b7280" font-size="10" font-weight="600" letter-spacing="0.05em">TERRITÓRIO</text>
  <text x="450" y="414" fill="#6b7280" font-size="10" font-weight="600" letter-spacing="0.05em">ESTADO</text>
  <text x="570" y="414" fill="#6b7280" font-size="10" font-weight="600" letter-spacing="0.05em">PUBLICADOR</text>
  <text x="760" y="414" fill="#6b7280" font-size="10" font-weight="600" letter-spacing="0.05em">DEVOLVIDO</text>
  <line x1="220" y1="424" x2="880" y2="424" stroke="#1f1f1f" stroke-width="1"/>
  <!-- Row 1 -->
  <text x="236" y="446" fill="#f5f5f5" font-size="12" font-weight="500">A-154 · Concelho de Amarante</text>
  <rect x="450" y="432" width="42" height="18" rx="4" fill="#16a34a"/>
  <text x="471" y="445" fill="#fff" font-size="10" font-weight="500" text-anchor="middle">Livre</text>
  <text x="570" y="446" fill="#6b7280" font-size="11">—</text>
  <text x="760" y="446" fill="#6b7280" font-size="11">13/01/2026</text>
  <line x1="220" y1="454" x2="880" y2="454" stroke="#1f1f1f" stroke-width="1"/>
  <!-- Row 2 -->
  <text x="236" y="476" fill="#f5f5f5" font-size="12" font-weight="500">G-103 · Sermonde</text>
  <rect x="450" y="462" width="58" height="18" rx="4" fill="#FF4C00"/>
  <text x="479" y="475" fill="#fff" font-size="10" font-weight="500" text-anchor="middle">Atrasado</text>
  <text x="570" y="476" fill="#6b7280" font-size="11">Grupo Sul (18/10/2024)</text>
  <text x="760" y="476" fill="#6b7280" font-size="11">02/09/2025</text>
  <line x1="220" y1="484" x2="880" y2="484" stroke="#1f1f1f" stroke-width="1"/>
  <!-- Row 3 -->
  <text x="236" y="506" fill="#f5f5f5" font-size="12" font-weight="500">P-32 · Serralves</text>
  <rect x="450" y="492" width="58" height="18" rx="4" fill="#3E74ED"/>
  <text x="479" y="505" fill="#fff" font-size="10" font-weight="500" text-anchor="middle">Atribuído</text>
  <text x="570" y="506" fill="#6b7280" font-size="11">Margarida F. (12/02/2026)</text>
  <text x="760" y="506" fill="#6b7280" font-size="11">15/11/2025</text>
  <line x1="220" y1="514" x2="880" y2="514" stroke="#1f1f1f" stroke-width="1"/>
  <!-- Row 4 -->
  <text x="236" y="536" fill="#f5f5f5" font-size="12" font-weight="500">F-155 · Concelho de Felgueiras - 1</text>
  <rect x="450" y="522" width="42" height="18" rx="4" fill="#16a34a"/>
  <text x="471" y="535" fill="#fff" font-size="10" font-weight="500" text-anchor="middle">Livre</text>
  <text x="570" y="536" fill="#6b7280" font-size="11">—</text>
  <text x="760" y="536" fill="#6b7280" font-size="11">29/10/2025</text>
</svg>