<svg xmlns="http://www.w3.org/2000/svg" width="900" height="560" viewBox="0 0 900 560" font-family="-apple-system,BlinkMacSystemFont,'SF Pro Text',sans-serif">
  <rect width="900" height="560" fill="#0f0f0f" rx="12"/>
  <rect width="200" height="560" fill="#0f0f0f"/>
  <rect x="200" width="1" height="560" fill="#1f1f1f"/>
  <rect x="18" y="20" width="28" height="28" rx="7" fill="#1a1a1a"/>
  <circle cx="25" cy="27" r="4" fill="#f5f5f5"/>
  <circle cx="25" cy="37" r="4" fill="#FF4C00"/>
  <circle cx="35" cy="37" r="4" fill="#ccff00"/>
  <text x="54" y="39" fill="#f5f5f5" font-size="14" font-weight="600" letter-spacing="-0.3">Territórios</text>
  <text x="18" y="97" fill="#6b7280" font-size="13">Início</text>
  <text x="18" y="137" fill="#6b7280" font-size="13">Territórios</text>
  <text x="18" y="177" fill="#6b7280" font-size="13">Publicadores</text>
  <text x="18" y="217" fill="#6b7280" font-size="13">Atribuições</text>
  <rect x="0" y="242" width="200" height="40" fill="#1a1a1a"/>
  <text x="18" y="267" fill="#f5f5f5" font-size="13" font-weight="500">Relatórios</text>
  <text x="18" y="307" fill="#6b7280" font-size="13">Definições</text>
  <!-- Header -->
  <text x="220" y="36" fill="#f5f5f5" font-size="17" font-weight="700">Relatórios</text>
  <rect x="796" y="20" width="84" height="28" rx="6" fill="#f5f5f5"/>
  <text x="838" y="38" fill="#0f0f0f" font-size="12" font-weight="500" text-anchor="middle">Exportar PDF</text>
  <!-- Filters card -->
  <rect x="220" y="52" width="660" height="130" rx="10" fill="#0f0f0f" stroke="#1f1f1f" stroke-width="1"/>
  <text x="236" y="74" fill="#f5f5f5" font-size="13" font-weight="600">Período</text>
  <text x="236" y="94" fill="#9ca3af" font-size="10">De</text>
  <rect x="236" y="100" width="180" height="28" rx="6" fill="#1a1a1a" stroke="#1f1f1f" stroke-width="1"/>
  <text x="326" y="118" fill="#f5f5f5" font-size="12" text-anchor="middle">01/04/2026</text>
  <text x="436" y="94" fill="#9ca3af" font-size="10">Até</text>
  <rect x="436" y="100" width="180" height="28" rx="6" fill="#1a1a1a" stroke="#1f1f1f" stroke-width="1"/>
  <text x="526" y="118" fill="#f5f5f5" font-size="12" text-anchor="middle">19/04/2026</text>
  <text x="236" y="148" fill="#9ca3af" font-size="10" font-weight="600" letter-spacing="0.04em">CATEGORIAS</text>
  <rect x="236" y="154" width="60" height="20" rx="5" fill="#1a1a1a" stroke="#f5f5f5" stroke-width="1"/>
  <text x="266" y="168" fill="#f5f5f5" font-size="10" text-anchor="middle">Porto</text>
  <rect x="304" y="154" width="72" height="20" rx="5" fill="#1a1a1a" stroke="#1f1f1f" stroke-width="1"/>
  <text x="340" y="168" fill="#6b7280" font-size="10" text-anchor="middle">Felgueiras</text>
  <rect x="384" y="154" width="62" height="20" rx="5" fill="#1a1a1a" stroke="#1f1f1f" stroke-width="1"/>
  <text x="415" y="168" fill="#6b7280" font-size="10" text-anchor="middle">Gondomar</text>
  <rect x="454" y="154" width="46" height="20" rx="5" fill="#1a1a1a" stroke="#1f1f1f" stroke-width="1"/>
  <text x="477" y="168" fill="#6b7280" font-size="10" text-anchor="middle">Maia</text>
  <!-- KPI grid -->
  <rect x="220" y="196" width="660" height="90" rx="10" fill="#0f0f0f" stroke="#1f1f1f" stroke-width="1"/>
  <line x1="385" y1="196" x2="385" y2="286" stroke="#1f1f1f" stroke-width="1"/>
  <line x1="550" y1="196" x2="550" y2="286" stroke="#1f1f1f" stroke-width="1"/>
  <line x1="715" y1="196" x2="715" y2="286" stroke="#1f1f1f" stroke-width="1"/>
  <line x1="220" y1="241" x2="880" y2="241" stroke="#1f1f1f" stroke-width="1"/>
  <text x="236" y="217" fill="#9ca3af" font-size="9" font-weight="600" letter-spacing="0.04em">TOTAL</text>
  <text x="401" y="217" fill="#9ca3af" font-size="9" font-weight="600" letter-spacing="0.04em">CONCLUÍDOS</text>
  <text x="566" y="217" fill="#9ca3af" font-size="9" font-weight="600" letter-spacing="0.04em">EM MÃOS</text>
  <text x="731" y="217" fill="#9ca3af" font-size="9" font-weight="600" letter-spacing="0.04em">NÃO TRAB.</text>
  <text x="236" y="236" fill="#f5f5f5" font-size="20" font-weight="600">155</text>
  <text x="401" y="236" fill="#F9A219" font-size="20" font-weight="600">21 (14%)</text>
  <text x="566" y="236" fill="#3E74ED" font-size="20" font-weight="600">34</text>
  <text x="731" y="236" fill="#f5f5f5" font-size="20" font-weight="600">100</text>
  <text x="236" y="261" fill="#9ca3af" font-size="9" font-weight="600" letter-spacing="0.04em">EM ATRASO</text>
  <text x="401" y="261" fill="#9ca3af" font-size="9" font-weight="600" letter-spacing="0.04em">MORADAS</text>
  <text x="566" y="261" fill="#9ca3af" font-size="9" font-weight="600" letter-spacing="0.04em">ADICIONADAS</text>
  <text x="731" y="261" fill="#9ca3af" font-size="9" font-weight="600" letter-spacing="0.04em">REMOVIDAS</text>
  <text x="236" y="278" fill="#FF4C00" font-size="20" font-weight="600">13</text>
  <text x="401" y="278" fill="#f5f5f5" font-size="20" font-weight="600">633</text>
  <text x="566" y="278" fill="#16a34a" font-size="20" font-weight="600">3</text>
  <text x="731" y="278" fill="#FF4C00" font-size="20" font-weight="600">22</text>
  <!-- Table -->
  <rect x="220" y="300" width="660" height="24" rx="0" fill="#1a1a1a"/>
  <text x="236" y="316" fill="#9ca3af" font-size="9" font-weight="600" letter-spacing="0.05em">TERRITÓRIO</text>
  <text x="460" y="316" fill="#9ca3af" font-size="9" font-weight="600" letter-spacing="0.05em">ESTADO</text>
  <text x="560" y="316" fill="#9ca3af" font-size="9" font-weight="600" letter-spacing="0.05em">PUBLICADOR</text>
  <text x="740" y="316" fill="#9ca3af" font-size="9" font-weight="600" letter-spacing="0.05em">DESDE</text>
  <line x1="220" y1="324" x2="880" y2="324" stroke="#1f1f1f" stroke-width="1"/>
  <!-- rows -->
  <g font-size="12">
    <text x="236" y="342" fill="#f5f5f5" font-weight="500">A-154 · Concelho de Amarante</text>
    <rect x="460" y="328" width="42" height="18" rx="4" fill="#16a34a"/>
    <text x="481" y="341" fill="#fff" font-size="10" text-anchor="middle">Livre</text>
    <text x="560" y="342" fill="#6b7280">—</text>
    <text x="740" y="342" fill="#6b7280">—</text>
    <line x1="220" y1="350" x2="880" y2="350" stroke="#1f1f1f" stroke-width="1"/>
    <text x="236" y="368" fill="#f5f5f5" font-weight="500">G-103 · Sermonde</text>
    <rect x="460" y="354" width="58" height="18" rx="4" fill="#FF4C00"/>
    <text x="489" y="367" fill="#fff" font-size="10" text-anchor="middle">Atrasado</text>
    <text x="560" y="368" fill="#6b7280">Grupo Sul</text>
    <text x="740" y="368" fill="#6b7280">18/10/2024</text>
    <line x1="220" y1="376" x2="880" y2="376" stroke="#1f1f1f" stroke-width="1"/>
    <text x="236" y="394" fill="#f5f5f5" font-weight="500">P-32 · Serralves</text>
    <rect x="460" y="380" width="58" height="18" rx="4" fill="#3E74ED"/>
    <text x="489" y="393" fill="#fff" font-size="10" text-anchor="middle">Atribuído</text>
    <text x="560" y="394" fill="#6b7280">Margarida F.</text>
    <text x="740" y="394" fill="#6b7280">12/02/2026</text>
    <line x1="220" y1="402" x2="880" y2="402" stroke="#1f1f1f" stroke-width="1"/>
    <text x="236" y="420" fill="#f5f5f5" font-weight="500">F-155 · Felgueiras - 1</text>
    <rect x="460" y="406" width="66" height="18" rx="4" fill="#d97706"/>
    <text x="493" y="419" fill="#fff" font-size="10" text-anchor="middle">A expirar</text>
    <text x="560" y="420" fill="#6b7280">Emanuel Ribeiro</text>
    <text x="740" y="420" fill="#6b7280">07/04/2026</text>
    <line x1="220" y1="428" x2="880" y2="428" stroke="#1f1f1f" stroke-width="1"/>
    <text x="236" y="446" fill="#f5f5f5" font-weight="500">B-150 · Concelho de Baião</text>
    <rect x="460" y="432" width="42" height="18" rx="4" fill="#16a34a"/>
    <text x="481" y="445" fill="#fff" font-size="10" text-anchor="middle">Livre</text>
    <text x="560" y="446" fill="#6b7280">—</text>
    <text x="740" y="446" fill="#6b7280">—</text>
    <line x1="220" y1="454" x2="880" y2="454" stroke="#1f1f1f" stroke-width="1"/>
    <text x="236" y="472" fill="#f5f5f5" font-weight="500">G-091 · Madalena</text>
    <rect x="460" y="458" width="58" height="18" rx="4" fill="#FF4C00"/>
    <text x="489" y="471" fill="#fff" font-size="10" text-anchor="middle">Atrasado</text>
    <text x="560" y="472" fill="#6b7280">Grupo Sul</text>
    <text x="740" y="472" fill="#6b7280">20/09/2024</text>
  </g>
  <!-- Address history section -->
  <rect x="220" y="494" width="660" height="46" rx="10" fill="#0f0f0f" stroke="#1f1f1f" stroke-width="1"/>
  <text x="236" y="515" fill="#f5f5f5" font-size="14" font-weight="600">Histórico de moradas</text>
  <rect x="594" y="503" width="30" height="18" rx="9" fill="#dcfce7"/>
  <text x="609" y="516" fill="#13803D" font-size="10" font-weight="600" text-anchor="middle">+3</text>
  <rect x="632" y="503" width="32" height="18" rx="9" fill="#fce8e8"/>
  <text x="648" y="516" fill="#DC2726" font-size="10" font-weight="600" text-anchor="middle">-22</text>
  <text x="820" y="521" fill="#6b7280" font-size="13">▼</text>
</svg>