<svg xmlns="http://www.w3.org/2000/svg" width="900" height="560" viewBox="0 0 900 560" font-family="-apple-system,BlinkMacSystemFont,'SF Pro Text',sans-serif">
  <rect width="900" height="560" fill="#0f0f0f" rx="12"/>
  <!-- Sidebar -->
  <rect width="200" height="560" fill="#0f0f0f"/>
  <rect x="200" width="1" height="560" fill="#1f1f1f"/>
  <rect x="18" y="20" width="28" height="28" rx="7" fill="#1a1a1a"/>
  <circle cx="25" cy="27" r="4" fill="#f5f5f5"/>
  <circle cx="25" cy="37" r="4" fill="#FF4C00"/>
  <circle cx="35" cy="37" r="4" fill="#ccff00"/>
  <text x="54" y="39" fill="#f5f5f5" font-size="14" font-weight="600" letter-spacing="-0.3">Territórios</text>
  <text x="18" y="97" fill="#6b7280" font-size="13">Início</text>
  <rect x="0" y="112" width="200" height="40" fill="#1a1a1a"/>
  <text x="18" y="137" fill="#f5f5f5" font-size="13" font-weight="500">Territórios</text>
  <text x="18" y="177" fill="#6b7280" font-size="13">Publicadores</text>
  <text x="18" y="217" fill="#6b7280" font-size="13">Atribuições</text>
  <text x="18" y="257" fill="#6b7280" font-size="13">Relatórios</text>
  <text x="18" y="297" fill="#6b7280" font-size="13">Definições</text>
  <!-- Content -->
  <!-- Search + button -->
  <rect x="220" y="20" width="560" height="36" rx="7" fill="#1a1a1a" stroke="#1f1f1f" stroke-width="1"/>
  <text x="236" y="43" fill="#6b7280" font-size="13">Pesquisar nome, categoria, publicador ou grupo...</text>
  <rect x="790" y="20" width="90" height="36" rx="7" fill="#f5f5f5"/>
  <text x="835" y="43" fill="#0f0f0f" font-size="13" font-weight="500" text-anchor="middle">+ Território</text>
  <!-- Status filters -->
  <rect x="220" y="68" width="54" height="26" rx="6" fill="#f5f5f5"/>
  <text x="247" y="85" fill="#0f0f0f" font-size="11" font-weight="500" text-anchor="middle">Todos</text>
  <rect x="282" y="68" width="80" height="26" rx="6" fill="#1a1a1a" stroke="#1f1f1f" stroke-width="1"/>
  <text x="322" y="85" fill="#6b7280" font-size="11" text-anchor="middle">Livres (119)</text>
  <rect x="370" y="68" width="90" height="26" rx="6" fill="#1a1a1a" stroke="#1f1f1f" stroke-width="1"/>
  <text x="415" y="85" fill="#6b7280" font-size="11" text-anchor="middle">Atribuídos (36)</text>
  <rect x="468" y="68" width="90" height="26" rx="6" fill="#1a1a1a" stroke="#1f1f1f" stroke-width="1"/>
  <text x="513" y="85" fill="#6b7280" font-size="11" text-anchor="middle">A expirar (7)</text>
  <rect x="566" y="68" width="92" height="26" rx="6" fill="#1a1a1a" stroke="#1f1f1f" stroke-width="1"/>
  <text x="612" y="85" fill="#6b7280" font-size="11" text-anchor="middle">Atrasados (13)</text>
  <!-- Category filters -->
  <rect x="220" y="104" width="90" height="26" rx="6" fill="#f5f5f5"/>
  <text x="265" y="121" fill="#0f0f0f" font-size="11" font-weight="500" text-anchor="middle">Todas as cat.</text>
  <rect x="318" y="104" width="72" height="26" rx="6" fill="#A8D8F0" stroke="#A8D8F0" stroke-width="1"/>
  <text x="354" y="121" fill="#111" font-size="11" text-anchor="middle">Amarante</text>
  <rect x="398" y="104" width="50" height="26" rx="6" fill="#BFE3A8" stroke="#BFE3A8" stroke-width="1"/>
  <text x="423" y="121" fill="#111" font-size="11" text-anchor="middle">Baião</text>
  <rect x="456" y="104" width="74" height="26" rx="6" fill="#FFD3A8" stroke="#FFD3A8" stroke-width="1"/>
  <text x="493" y="121" fill="#111" font-size="11" text-anchor="middle">Felgueiras</text>
  <rect x="538" y="104" width="46" height="26" rx="6" fill="#F4B6C2" stroke="#F4B6C2" stroke-width="1"/>
  <text x="561" y="121" fill="#111" font-size="11" text-anchor="middle">Gaia</text>
  <rect x="592" y="104" width="68" height="26" rx="6" fill="#FFE08A" stroke="#FFE08A" stroke-width="1"/>
  <text x="626" y="121" fill="#111" font-size="11" text-anchor="middle">Gondomar</text>
  <rect x="668" y="104" width="58" height="26" rx="6" fill="#D4F5A6" stroke="#D4F5A6" stroke-width="1"/>
  <text x="697" y="121" fill="#111" font-size="11" text-anchor="middle">Lousada</text>
  <!-- Section header Amarante -->
  <text x="224" y="152" fill="#9ca3af" font-size="10" font-weight="600" letter-spacing="0.08em">● AMARANTE (1)</text>
  <line x1="220" y1="158" x2="880" y2="158" stroke="#1f1f1f" stroke-width="1"/>
  <!-- Card 1 - Livre -->
  <rect x="220" y="162" width="660" height="44" rx="10" fill="#0f0f0f" stroke="#1f1f1f" stroke-width="1"/>
  <rect x="232" y="181" width="8" height="8" rx="2" fill="#A8D8F0"/>
  <text x="246" y="182" fill="#9ca3af" font-size="11" font-weight="500">A-154 ·</text>
  <text x="284" y="182" fill="#f5f5f5" font-size="14" font-weight="600">Concelho de Amarante</text>
  <text x="246" y="196" fill="#6b7280" font-size="11">10 moradas · Trabalhado em 13/01/2026 · 3.2 meses atrás</text>
  <rect x="820" y="172" width="42" height="20" rx="4" fill="#16a34a"/>
  <text x="841" y="186" fill="#fff" font-size="10" font-weight="500" text-anchor="middle">Livre</text>
  <!-- Section header Baião -->
  <text x="224" y="222" fill="#9ca3af" font-size="10" font-weight="600" letter-spacing="0.08em">● BAIÃO (1)</text>
  <line x1="220" y1="228" x2="880" y2="228" stroke="#1f1f1f" stroke-width="1"/>
  <!-- Card 2 - Nunca trabalhado -->
  <rect x="220" y="232" width="660" height="44" rx="10" fill="#0f0f0f" stroke="#1f1f1f" stroke-width="1"/>
  <rect x="232" y="251" width="8" height="8" rx="2" fill="#BFE3A8"/>
  <text x="246" y="252" fill="#9ca3af" font-size="11" font-weight="500">B-150 ·</text>
  <text x="284" y="252" fill="#f5f5f5" font-size="14" font-weight="600">Concelho de Baião</text>
  <text x="246" y="266" fill="#FF4C00" font-size="11">Nunca trabalhado</text>
  <rect x="820" y="242" width="42" height="20" rx="4" fill="#16a34a"/>
  <text x="841" y="256" fill="#fff" font-size="10" font-weight="500" text-anchor="middle">Livre</text>
  <!-- Section header Felgueiras -->
  <text x="224" y="292" fill="#9ca3af" font-size="10" font-weight="600" letter-spacing="0.08em">● FELGUEIRAS (2)</text>
  <line x1="220" y1="298" x2="880" y2="298" stroke="#1f1f1f" stroke-width="1"/>
  <!-- Card 3 - Atrasado -->
  <rect x="220" y="302" width="660" height="44" rx="10" fill="rgba(255,76,0,0.04)" stroke="#FF4C00" stroke-width="2"/>
  <rect x="232" y="321" width="8" height="8" rx="2" fill="#FFD3A8"/>
  <text x="246" y="322" fill="#9ca3af" font-size="11" font-weight="500">F-91 ·</text>
  <text x="278" y="322" fill="#f5f5f5" font-size="14" font-weight="600">Madalena</text>
  <text x="246" y="336" fill="#6b7280" font-size="11">Grupo Sul · 18/10/2024 · </text>
  <text x="358" y="336" fill="#FF4C00" font-size="11" font-weight="600">26 sem. em atraso</text>
  <rect x="800" y="312" width="62" height="20" rx="4" fill="#FF4C00"/>
  <text x="831" y="326" fill="#fff" font-size="10" font-weight="500" text-anchor="middle">Atrasado</text>
  <!-- Card 4 - A expirar -->
  <rect x="220" y="352" width="660" height="44" rx="10" fill="rgba(217,119,6,0.04)" stroke="#d97706" stroke-width="2"/>
  <rect x="232" y="371" width="8" height="8" rx="2" fill="#FFD3A8"/>
  <text x="246" y="372" fill="#9ca3af" font-size="11" font-weight="500">F-155 ·</text>
  <text x="290" y="372" fill="#f5f5f5" font-size="14" font-weight="600">Concelho de Felgueiras - 1</text>
  <text x="246" y="386" fill="#6b7280" font-size="11">Emanuel Ribeiro · 07/04/2026 · </text>
  <text x="388" y="386" fill="#d97706" font-size="11" font-weight="600">23 dias restantes</text>
  <rect x="800" y="362" width="72" height="20" rx="4" fill="#d97706"/>
  <text x="836" y="376" fill="#fff" font-size="10" font-weight="500" text-anchor="middle">A expirar</text>
  <!-- Card 5 - Atribuído -->
  <rect x="220" y="402" width="660" height="44" rx="10" fill="#0f0f0f" stroke="#1f1f1f" stroke-width="1"/>
  <rect x="232" y="421" width="8" height="8" rx="2" fill="#FFD3A8"/>
  <text x="246" y="422" fill="#9ca3af" font-size="11" font-weight="500">F-156 ·</text>
  <text x="290" y="422" fill="#f5f5f5" font-size="14" font-weight="600">Concelho de Felgueiras - 2</text>
  <text x="246" y="436" fill="#6b7280" font-size="11">Margarida Fontes · 12/02/2026 · 55 dias restantes</text>
  <rect x="800" y="412" width="62" height="20" rx="4" fill="#3E74ED"/>
  <text x="831" y="426" fill="#fff" font-size="10" font-weight="500" text-anchor="middle">Atribuído</text>
  <!-- Section Gaia -->
  <text x="224" y="462" fill="#9ca3af" font-size="10" font-weight="600" letter-spacing="0.08em">● GAIA (3)</text>
  <line x1="220" y1="468" x2="880" y2="468" stroke="#1f1f1f" stroke-width="1"/>
  <rect x="220" y="472" width="660" height="44" rx="10" fill="#0f0f0f" stroke="#1f1f1f" stroke-width="1"/>
  <rect x="232" y="491" width="8" height="8" rx="2" fill="#F4B6C2"/>
  <text x="246" y="492" fill="#9ca3af" font-size="11" font-weight="500">G-001 ·</text>
  <text x="290" y="492" fill="#f5f5f5" font-size="14" font-weight="600">Arcozelo</text>
  <text x="246" y="506" fill="#6b7280" font-size="11">Rui Pereira · 21/10/2025 · 97 dias restantes</text>
  <rect x="800" y="482" width="62" height="20" rx="4" fill="#3E74ED"/>
  <text x="831" y="496" fill="#fff" font-size="10" font-weight="500" text-anchor="middle">Atribuído</text>
</svg>